<svg xmlns="http://www.w3.org/2000/svg" viewBox="0 0 128 128" width="30px" height="30px"><path fill="#84c123" d="M96.6 45.4c7.3 8.1 7.1 20.7-.5 28.5l-.8.8c-6.4 6.1-10.5 14.2-12.5 22.8-1.3 5.9-4.3 11.5-8.9 16.1-13.6 13.6-35.9 13-48.8-1.7-10.5-12.2-10.8-30.5-.7-42.9 5-6.1 11.6-10 18.6-11.5 8.6-1.9 16.6-6.1 22.7-12.5l.4-.4c8.5-8.5 22.4-8.2 30.5.8z" class="color84c123 svgShape"></path><path fill="#6f9321" d="M100.8 52.7c-.4 5.3-3.1 10.3-7.6 13.4-.2.2-.5.3-.7.5-9.6 5.7-17.5 14.6-22.8 25.8-2.6 5.4-6.6 10-11.7 13.2-7.2 4.6-15.7 6.1-24 4.2-5.6-1.2-10.7-4-14.8-7.8 1.4 3.6 3.3 7 6 10 12.8 14.7 35.2 15.3 48.8 1.7 4.6-4.6 7.6-10.2 8.9-16.1 2-8.6 6-16.7 12.5-22.8l.8-.8c5.4-5.8 7-14.1 4.6-21.3z" class="color6f9321 svgShape"></path><path fill="none" stroke="#31352e" stroke-linecap="round" stroke-linejoin="round" stroke-miterlimit="10" stroke-width="6" d="m95.3 74.7.8-.8c7.5-7.8 7.7-20.5.5-28.5-8.1-9-22-9.3-30.4-.8l-.4.4c-6.1 6.4-14 10.6-22.7 12.5-7 1.5-13.6 5.4-18.6 11.5-10.2 12.4-9.9 30.7.7 42.9 12.8 14.7 35.2 15.3 48.8 1.7 4.6-4.6 7.6-10.2 8.9-16.1 1.9-8.7 6-16.8 12.4-22.8z" class="colorStroke31352e svgStroke"></path><path fill="none" stroke="#31352e" stroke-linecap="round" stroke-miterlimit="10" stroke-width="6" d="M95.8 44.5s4.1-8.1 13.4-13.4" class="colorStroke31352e svgStroke"></path><path fill="#57b540" d="M101.5 34.6s-11.6-.9-18.7-8.6c-7.1-7.7-6.9-19.4-6.9-19.4s11.6.9 18.7 8.6 6.9 19.4 6.9 19.4z" class="color57b540 svgShape"></path><path fill="#88dd6c" d="M90.5 27.7c-7-7.7-6.9-19.4-6.9-19.4h.1c-4.4-1.5-7.9-1.8-7.9-1.8s-.2 11.7 6.9 19.4c6.7 7.3 17.5 8.5 18.6 8.6-3.5-1.2-7.6-3.3-10.8-6.8z" class="color88dd6c svgShape"></path><path fill="none" stroke="#31352e" stroke-miterlimit="10" stroke-width="6" d="M101.5 34.6s-11.6-.9-18.7-8.6c-7.1-7.7-6.9-19.4-6.9-19.4s11.6.9 18.7 8.6 6.9 19.4 6.9 19.4z" class="colorStroke31352e svgStroke"></path><ellipse cx="36.7" cy="75.8" fill="#b8e26f" rx="9.7" ry="7" transform="rotate(-36.407 36.667 75.825)" class="colorb8e26f svgShape"></ellipse></svg>